<svg width="1007" height="767" viewBox="0 0 1007 767" fill="none" xmlns="http://www.w3.org/2000/svg">
<rect x="127" y="106" width="176" height="176" rx="6" fill="#C8865B"/>
<text fill="white" style="white-space: pre" xml:space="preserve" font-family="sans-serif" font-size="24" font-weight="500" letter-spacing="-0.019em"><tspan x="157.181" y="202.727">Client App</tspan></text>
<rect x="127" y="554" width="176" height="176" rx="6" fill="#C8865B"/>
<text fill="white" style="white-space: pre" xml:space="preserve" font-family="sans-serif" font-size="24" font-weight="500" letter-spacing="-0.019em"><tspan x="179.13" y="650.727">Browser</tspan></text>
<rect x="799" y="106" width="208" height="176" rx="6" fill="#769E76"/>
<text fill="white" style="white-space: pre" xml:space="preserve" font-family="sans-serif" font-size="24" font-weight="500" letter-spacing="-0.019em"><tspan x="817.89" y="202.727">Token Endpoint</tspan></text>
<rect x="799" y="554" width="208" height="176" rx="6" fill="#769E76"/>
<text fill="white" style="white-space: pre" xml:space="preserve" font-family="sans-serif" font-size="24" font-weight="500" letter-spacing="-0.019em"><tspan x="828.468" y="632.727">Authorization </tspan><tspan x="853.42" y="668.727">Endpoint</tspan></text>
<rect x="2" y="2" width="440" height="763" rx="6" stroke="white" stroke-width="4" stroke-linecap="round" stroke-dasharray="17 10"/>
<path d="M143.834 288C143.834 286.895 142.939 286 141.834 286C140.73 286 139.834 286.895 139.834 288H141.834H143.834ZM139.834 385.5C139.834 386.605 140.73 387.5 141.834 387.5C142.939 387.5 143.834 386.605 143.834 385.5H141.834H139.834ZM145.249 450.5C145.249 449.395 144.353 448.5 143.249 448.5C142.144 448.5 141.249 449.395 141.249 450.5H143.249H145.249ZM141.834 548.914C142.615 549.695 143.882 549.695 144.663 548.914L157.391 536.186C158.172 535.405 158.172 534.139 157.391 533.358C156.61 532.577 155.343 532.577 154.562 533.358L143.249 544.672L131.935 533.358C131.154 532.577 129.887 532.577 129.106 533.358C128.325 534.139 128.325 535.405 129.106 536.186L141.834 548.914ZM141.834 288H139.834V385.5H141.834H143.834V288H141.834ZM143.249 450.5H141.249V547.5H143.249H145.249V450.5H143.249Z" fill="white"/>
<text fill="white" style="white-space: pre" xml:space="preserve" font-family="sans-serif" font-size="17" font-weight="500" letter-spacing="-0.011em"><tspan x="90" y="411.818">1. Authorization&#x2028;</tspan><tspan x="110" y="435.818"> Request</tspan></text>
<path d="M281.256 548C281.256 549.105 282.151 550 283.256 550C284.36 550 285.256 549.105 285.256 548H283.256H281.256ZM285.256 450.5C285.256 449.395 284.36 448.5 283.256 448.5C282.151 448.5 281.256 449.395 281.256 450.5H283.256H285.256ZM278.427 385.5C278.427 386.605 279.323 387.5 280.427 387.5C281.532 387.5 282.427 386.605 282.427 385.5H280.427H278.427ZM281.841 287.086C281.06 286.305 279.794 286.305 279.013 287.086L266.285 299.814C265.504 300.595 265.504 301.861 266.285 302.642C267.066 303.423 268.333 303.423 269.114 302.642L280.427 291.328L291.741 302.642C292.522 303.423 293.788 303.423 294.569 302.642C295.35 301.861 295.35 300.595 294.569 299.814L281.841 287.086ZM283.256 548H285.256V450.5H283.256H281.256V548H283.256ZM280.427 385.5H282.427V288.5H280.427H278.427V385.5H280.427Z" fill="white"/>
<text fill="white" style="white-space: pre" xml:space="preserve" font-family="sans-serif" font-size="17" font-weight="500" letter-spacing="-0.011em"><tspan x="240" y="411.818">4. Authorization&#x2028;</tspan><tspan x="273.699" y="435.818">Code</tspan></text>
<path d="M309 688.014C307.895 688.014 307 688.91 307 690.014C307 691.119 307.895 692.014 309 692.014V690.014V688.014ZM446.75 692.014C447.855 692.014 448.75 691.119 448.75 690.014C448.75 688.91 447.855 688.014 446.75 688.014V690.014V692.014ZM654.75 688.014C653.645 688.014 652.75 688.91 652.75 690.014C652.75 691.119 653.645 692.014 654.75 692.014V690.014V688.014ZM793.914 691.428C794.695 690.647 794.695 689.381 793.914 688.6L781.186 675.872C780.405 675.091 779.139 675.091 778.358 675.872C777.577 676.653 777.577 677.92 778.358 678.701L789.672 690.014L778.358 701.328C777.577 702.109 777.577 703.375 778.358 704.156C779.139 704.937 780.405 704.937 781.186 704.156L793.914 691.428ZM309 690.014V692.014H446.75V690.014V688.014H309V690.014ZM654.75 690.014V692.014H792.5V690.014V688.014H654.75V690.014Z" fill="white"/>
<text fill="white" style="white-space: pre" xml:space="preserve" font-family="sans-serif" font-size="17" font-weight="500" letter-spacing="-0.011em"><tspan x="460" y="695.832">2. Authorization Request</tspan></text>
<path d="M793 594.434C794.105 594.434 795 593.538 795 592.434C795 591.329 794.105 590.434 793 590.434V592.434V594.434ZM644.75 590.434C643.645 590.434 642.75 591.329 642.75 592.434C642.75 593.538 643.645 594.434 644.75 594.434V592.434V590.434ZM457.75 594.434C458.855 594.434 459.75 593.538 459.75 592.434C459.75 591.329 458.855 590.434 457.75 590.434V592.434V594.434ZM308.086 591.019C307.305 591.8 307.305 593.067 308.086 593.848L320.814 606.576C321.595 607.357 322.861 607.357 323.642 606.576C324.423 605.795 324.423 604.528 323.642 603.747L312.328 592.434L323.642 581.12C324.423 580.339 324.423 579.072 323.642 578.291C322.861 577.51 321.595 577.51 320.814 578.291L308.086 591.019ZM793 592.434V590.434H644.75V592.434V594.434H793V592.434ZM457.75 592.434V590.434H309.5V592.434V594.434H457.75V592.434Z" fill="white"/>
<text fill="white" style="white-space: pre" xml:space="preserve" font-family="sans-serif" font-size="17" font-weight="500" letter-spacing="-0.011em"><tspan x="470" y="598.252">3. Authorization Code</tspan></text>
<path d="M309 251.022C307.895 251.022 307 251.918 307 253.022C307 254.127 307.895 255.022 309 255.022V253.022V251.022ZM457.25 255.022C458.355 255.022 459.25 254.127 459.25 253.022C459.25 251.918 458.355 251.022 457.25 251.022V253.022V255.022ZM644.25 251.022C643.145 251.022 642.25 251.918 642.25 253.022C642.25 254.127 643.145 255.022 644.25 255.022V253.022V251.022ZM793.914 254.437C794.695 253.655 794.695 252.389 793.914 251.608L781.186 238.88C780.405 238.099 779.139 238.099 778.358 238.88C777.577 239.661 777.577 240.928 778.358 241.709L789.672 253.022L778.358 264.336C777.577 265.117 777.577 266.383 778.358 267.174C779.139 267.945 780.405 267.945 781.186 267.174L793.914 254.437ZM309 253.022V255.022H457.25V253.022V251.022H309V253.022ZM644.25 253.022V255.022H792.5V253.022V251.022H644.25V253.022Z" fill="white"/>
<text fill="white" style="white-space: pre" xml:space="preserve" font-family="sans-serif" font-size="17" font-weight="500" letter-spacing="-0.011em"><tspan x="470" y="258.84">5. Authorization Code</tspan></text>
<path d="M793 143.299C794.105 143.299 795 142.404 795 141.299C795 140.195 794.105 139.299 793 139.299V141.299V143.299ZM628.25 139.299C627.145 139.299 626.25 140.195 626.25 141.299C626.25 142.404 627.145 143.299 628.25 143.299V141.299V139.299ZM474.25 143.299C475.355 143.299 476.25 142.404 476.25 141.299C476.25 140.195 475.355 139.299 474.25 139.299V141.299V143.299ZM308.086 139.885C307.305 140.666 307.305 141.933 308.086 142.714L320.814 155.442C321.595 156.223 322.861 156.223 323.642 155.442C324.423 154.661 324.423 153.394 323.642 152.613L312.328 141.299L323.642 129.986C324.423 129.205 324.423 127.938 323.642 127.157C322.861 126.376 321.595 126.376 320.814 127.157L308.086 139.885ZM793 141.299V139.299H628.25V141.299V143.299H793V141.299ZM474.25 141.299V139.299H309.5V141.299V143.299H474.25V141.299Z" fill="white"/>
<text fill="white" style="white-space: pre" xml:space="preserve" font-family="sans-serif" font-size="17" font-weight="500" letter-spacing="-0.011em"><tspan x="490" y="135.118">6. Access Token, &#x2028;</tspan><tspan x="500" y="159.118">Refresh Token</tspan></text>
<text fill="white" style="white-space: pre" xml:space="preserve" font-family="sans-serif" font-size="24" font-weight="500" letter-spacing="-0.019em"><tspan x="155.022" y="62.7273">User Device</tspan></text>
</svg>
